<svg width="198" height="55" viewBox="0 0 198 55" fill="none" xmlns="http://www.w3.org/2000/svg">
<path d="M14.4939 30.144C16.8832 30.144 18.8059 30.0693 20.2619 29.92C21.7179 29.7707 22.8379 29.472 23.6219 29.024C24.4432 28.5387 25.0219 27.848 25.3579 26.952C25.6939 26.056 25.9552 24.8427 26.1419 23.312H28.2139V39.72H26.1419C25.9179 38.2267 25.6192 37.032 25.2459 36.136C24.8725 35.24 24.2752 34.568 23.4539 34.12C22.6325 33.6347 21.5125 33.336 20.0939 33.224C18.7125 33.0747 16.8459 33 14.4939 33V44.536C14.4939 45.7307 14.6432 46.7387 14.9419 47.56C15.2779 48.3813 15.8192 49.0533 16.5659 49.576C17.3125 50.0613 18.3019 50.416 19.5339 50.64C20.7659 50.8267 22.2779 50.92 24.0699 50.92C26.1979 50.92 27.9899 50.7707 29.4459 50.472C30.9392 50.1733 32.1712 49.6507 33.1419 48.904C34.1125 48.1573 34.8965 47.168 35.4939 45.936C36.0912 44.6667 36.5952 43.08 37.0059 41.176H39.2459L38.3499 54H0.381875V51.76C1.61388 51.7227 2.62188 51.6107 3.40588 51.424C4.18988 51.2373 4.78721 50.92 5.19788 50.472C5.60854 50.024 5.88854 49.3893 6.03788 48.568C6.18721 47.7467 6.26188 46.6827 6.26188 45.376V19.504C6.26188 18.1973 6.18721 17.152 6.03788 16.368C5.92588 15.5467 5.68321 14.912 5.30988 14.464C4.93654 13.9787 4.39521 13.6613 3.68588 13.512C3.01388 13.3253 2.11788 13.1947 0.997875 13.12V10.88H36.3899L36.7819 21.856H34.3739C34.1499 20.288 33.7952 19 33.3099 17.992C32.8245 16.9467 32.1525 16.1253 31.2939 15.528C30.4352 14.8933 29.3152 14.464 27.9339 14.24C26.5899 13.9787 24.9285 13.848 22.9499 13.848H16.6219C15.6512 13.848 15.0539 13.9787 14.8299 14.24C14.6059 14.464 14.4939 15.024 14.4939 15.92V30.144ZM16.2299 7.52L23.2859 2.088C24.0325 1.528 24.8539 1.08 25.7499 0.743998C26.6459 0.407998 27.5792 0.239998 28.5499 0.239998C29.5952 0.239998 30.3792 0.426664 30.9019 0.799997C31.4619 1.17333 31.7419 1.67733 31.7419 2.312C31.7419 3.17066 31.4059 3.88 30.7339 4.44C30.0619 4.96266 28.7552 5.46666 26.8139 5.952L20.3179 7.52H16.2299ZM42.5875 27.4V24.88C44.8275 24.2453 46.6942 23.2933 48.1875 22.024C49.7182 20.7173 50.8568 19.224 51.6035 17.544H54.4595V24.32H60.8995V27.4H54.4595V44.592C54.4595 46.9067 54.7022 48.5493 55.1875 49.52C55.7102 50.4907 56.5688 50.976 57.7635 50.976C59.2195 50.976 60.3208 50.304 61.0675 48.96L62.2435 50.584C61.1982 53.2347 58.7342 54.56 54.8515 54.56C52.2755 54.56 50.2595 53.9627 48.8035 52.768C47.3848 51.5733 46.6755 49.8933 46.6755 47.728V27.4H42.5875ZM88.6103 33.504C88.6103 32.0107 88.573 30.8347 88.4983 29.976C88.4236 29.08 88.2183 28.408 87.8823 27.96C87.5463 27.4747 87.0423 27.1573 86.3703 27.008C85.7356 26.8213 84.8583 26.672 83.7383 26.56V24.32H96.3943V41.288C96.3943 43.5653 96.413 45.3573 96.4503 46.664C96.525 47.9333 96.637 48.8853 96.7863 49.52C96.8983 50.0053 97.029 50.3973 97.1783 50.696C97.3276 50.9573 97.5703 51.1813 97.9063 51.368C98.2423 51.5173 98.6903 51.6293 99.2503 51.704C99.8476 51.7413 100.613 51.76 101.546 51.76V53.944L90.4023 54.616L89.7863 49.632H89.5623C88.5916 51.2 87.229 52.4133 85.4743 53.272C83.7196 54.1307 81.7596 54.56 79.5943 54.56C75.5996 54.56 72.557 53.1413 70.4663 50.304C68.861 48.1387 68.0583 45.0587 68.0583 41.064V33.504C68.0583 31.9733 68.021 30.7787 67.9463 29.92C67.8716 29.024 67.6663 28.352 67.3303 27.904C67.0316 27.456 66.565 27.1573 65.9303 27.008C65.2956 26.8213 64.4183 26.672 63.2983 26.56V24.32H75.8423V40.168C75.8423 43.9387 76.309 46.6827 77.2423 48.4C78.1756 50.08 79.669 50.92 81.7223 50.92C83.925 50.92 85.6236 49.912 86.8183 47.896C88.013 45.9547 88.6103 43.0987 88.6103 39.328V33.504ZM129.209 50.416H128.985C126.409 53.1787 123.068 54.56 118.961 54.56C116.833 54.56 114.873 54.1867 113.081 53.44C111.327 52.6933 109.796 51.648 108.489 50.304C107.22 48.96 106.231 47.3733 105.521 45.544C104.812 43.6773 104.457 41.624 104.457 39.384C104.457 37.144 104.812 35.072 105.521 33.168C106.268 31.264 107.257 29.6213 108.489 28.24C109.759 26.8213 111.252 25.72 112.969 24.936C114.724 24.152 116.609 23.76 118.625 23.76C120.492 23.76 122.135 24.04 123.553 24.6C125.009 25.16 126.279 26.112 127.361 27.456H127.585V22.696C127.585 20.4933 127.548 18.608 127.473 17.04C127.436 15.4347 127.361 14.3893 127.249 13.904C127.063 13.12 126.484 12.56 125.513 12.224C124.58 11.8507 123.124 11.664 121.145 11.664V9.76L135.313 7.52V39.552C135.313 42.352 135.332 44.5173 135.369 46.048C135.444 47.5413 135.556 48.68 135.705 49.464C135.78 49.9493 135.892 50.3413 136.041 50.64C136.191 50.9387 136.415 51.1813 136.713 51.368C137.012 51.5173 137.404 51.6293 137.889 51.704C138.412 51.7413 139.065 51.76 139.849 51.76V53.944L129.209 54.56V50.416ZM127.473 37.928C127.473 36.5093 127.324 35.2027 127.025 34.008C126.727 32.776 126.279 31.6933 125.681 30.76C125.009 29.6773 124.151 28.856 123.105 28.296C122.06 27.736 120.94 27.456 119.745 27.456C117.543 27.456 115.863 28.464 114.705 30.48C113.548 32.496 112.969 35.4267 112.969 39.272C112.969 43.1547 113.548 46.1413 114.705 48.232C115.863 50.3227 117.524 51.368 119.689 51.368C120.921 51.368 122.097 51.0507 123.217 50.416C124.337 49.7813 125.252 48.9227 125.961 47.84C126.484 47.0187 126.857 46.0107 127.081 44.816C127.343 43.584 127.473 42.016 127.473 40.112V37.928ZM171.396 48.792C167.999 52.6373 163.762 54.56 158.684 54.56C156.37 54.56 154.26 54.2053 152.356 53.496C150.49 52.7493 148.884 51.7227 147.54 50.416C146.196 49.072 145.151 47.4853 144.404 45.656C143.658 43.8267 143.284 41.792 143.284 39.552C143.284 37.2373 143.676 35.128 144.46 33.224C145.244 31.2827 146.346 29.6213 147.764 28.24C149.22 26.8213 150.919 25.72 152.86 24.936C154.839 24.152 157.004 23.76 159.356 23.76C163.314 23.76 166.394 24.824 168.596 26.952C170.799 29.08 171.9 32.0667 171.9 35.912C171.9 36.5093 171.807 36.8827 171.62 37.032C171.434 37.144 170.911 37.2 170.052 37.2H152.02C151.871 37.536 151.796 38.152 151.796 39.048C151.796 42.7067 152.58 45.6 154.148 47.728C155.754 49.856 157.919 50.92 160.644 50.92C162.212 50.92 163.762 50.5653 165.292 49.856C166.86 49.1467 168.372 48.1387 169.828 46.832L171.396 48.792ZM160.532 34.064C162.026 34.064 162.978 33.9893 163.388 33.84C163.836 33.6533 164.06 33.2427 164.06 32.608C164.06 30.9653 163.594 29.6213 162.66 28.576C161.727 27.5307 160.551 27.008 159.132 27.008C157.527 27.008 156.09 27.68 154.82 29.024C153.588 30.3307 152.786 32.0107 152.412 34.064H160.532ZM178.674 54H176.938V43.808H179.29C179.925 46.496 180.839 48.456 182.034 49.688C183.229 50.92 184.778 51.536 186.682 51.536C188.063 51.536 189.127 51.256 189.874 50.696C190.658 50.0987 191.05 49.296 191.05 48.288C191.05 47.2427 190.583 46.2347 189.65 45.264C188.717 44.256 187.205 43.192 185.114 42.072C182.277 40.5413 180.242 39.0293 179.01 37.536C177.778 36.0053 177.162 34.288 177.162 32.384C177.162 31.152 177.386 30.0133 177.834 28.968C178.319 27.8853 178.954 26.952 179.738 26.168C180.559 25.384 181.53 24.7867 182.65 24.376C183.77 23.928 184.983 23.704 186.29 23.704C187.447 23.704 188.586 23.872 189.706 24.208C190.863 24.544 191.871 25.0107 192.73 25.608L193.738 24.264H195.194V32.72H193.01C192.151 30.592 191.255 29.0613 190.322 28.128C189.426 27.1947 188.325 26.728 187.018 26.728C185.973 26.728 185.133 27.008 184.498 27.568C183.901 28.128 183.602 28.8747 183.602 29.808C183.602 30.8533 184.05 31.8427 184.946 32.776C185.879 33.7093 187.41 34.736 189.538 35.856C191.031 36.6773 192.319 37.48 193.402 38.264C194.485 39.048 195.362 39.8507 196.034 40.672C196.706 41.456 197.191 42.296 197.49 43.192C197.826 44.0507 197.994 44.984 197.994 45.992C197.994 47.2987 197.751 48.4747 197.266 49.52C196.781 50.5653 196.09 51.4613 195.194 52.208C194.298 52.9547 193.215 53.5333 191.946 53.944C190.714 54.3547 189.333 54.56 187.802 54.56C186.197 54.56 184.703 54.3547 183.322 53.944C181.941 53.496 180.802 52.8613 179.906 52.04L178.674 54Z" fill="white"/>
</svg>
